<?xml version="1.0" encoding="UTF-8"?>
<svg version="1.1" xmlns="http://www.w3.org/2000/svg" width="81" height="78">
<path d="M0 0 C1.32 0.33 2.64 0.66 4 1 C4.495 8.92 4.495 8.92 5 17 C6.65 13.37 8.3 9.74 10 6 C12.475 6.495 12.475 6.495 15 7 C14.44999802 11.58334984 13.51655324 15.64761551 12 20 C12.4031543 19.57066162 12.80630859 19.14132324 13.22167969 18.69897461 C15.05132755 16.76554861 16.90014175 14.85158944 18.75 12.9375 C19.38421875 12.26138672 20.0184375 11.58527344 20.671875 10.88867188 C21.290625 10.25380859 21.909375 9.61894531 22.546875 8.96484375 C23.39523926 8.07720337 23.39523926 8.07720337 24.26074219 7.17163086 C26 6 26 6 28.21582031 6.31469727 C28.80459961 6.54084717 29.39337891 6.76699707 30 7 C29.69029106 12.38493928 26.64569893 14.82467404 22.9375 18.3125 C22.36966797 18.86228516 21.80183594 19.41207031 21.21679688 19.97851562 C19.82009075 21.32827365 18.41121163 22.66541525 17 24 C17.60328125 23.77183594 18.2065625 23.54367188 18.828125 23.30859375 C19.62734375 23.02113281 20.4265625 22.73367187 21.25 22.4375 C22.03890625 22.14746094 22.8278125 21.85742188 23.640625 21.55859375 C26.19103452 20.95477163 27.55322229 21.1526068 30 22 C30 23.65 30 25.3 30 27 C26.7 28.32 23.4 29.64 20 31 C24.95 31.33 29.9 31.66 35 32 C35.495 34.475 35.495 34.475 36 37 C34.00383446 38.99616554 30.18298037 38.40983427 27.4375 38.5625 C26.72658203 38.60568359 26.01566406 38.64886719 25.28320312 38.69335938 C23.52238088 38.79971777 21.7612168 38.90038846 20 39 C23.3 40.32 26.6 41.64 30 43 C30 44.65 30 46.3 30 48 C26.57056481 49.18771723 24.62215325 48.80226223 21.25 47.5625 C20.45078125 47.27503906 19.6515625 46.98757812 18.828125 46.69140625 C18.22484375 46.46324219 17.6215625 46.23507813 17 46 C18.42505859 47.32064453 18.42505859 47.32064453 19.87890625 48.66796875 C21.10754554 49.84033448 22.33536814 51.01355652 23.5625 52.1875 C24.19091797 52.76564453 24.81933594 53.34378906 25.46679688 53.93945312 C27.14586179 55.56346673 28.66443015 57.08244999 30 59 C29.90234375 61.92578125 29.90234375 61.92578125 29 64 C25.69881206 63.4194679 24.08865924 62.45131901 21.765625 60.05859375 C21.19199219 59.47529297 20.61835937 58.89199219 20.02734375 58.29101562 C19.44082031 57.67935547 18.85429688 57.06769531 18.25 56.4375 C17.64800781 55.82197266 17.04601563 55.20644531 16.42578125 54.57226562 C14.94365619 53.05485187 13.4709033 51.52829404 12 50 C12.24057129 50.6398584 12.48114258 51.2797168 12.72900391 51.93896484 C15.56497654 59.58961157 15.56497654 59.58961157 14 64 C11.64453125 63.81640625 11.64453125 63.81640625 9 63 C7.10201876 59.81857013 6.20626918 56.52945426 5 53 C4.67 58.28 4.34 63.56 4 69 C2.02 69.495 2.02 69.495 0 70 C-2.77042109 67.22957891 -2.39796106 65.23466195 -2.625 61.375 C-2.69976562 60.18648437 -2.77453125 58.99796875 -2.8515625 57.7734375 C-2.90054688 56.85820313 -2.94953125 55.94296875 -3 55 C-4.32 57.97 -5.64 60.94 -7 64 C-8.65 63.67 -10.3 63.34 -12 63 C-11.44999802 58.41665016 -10.51655324 54.35238449 -9 50 C-9.60473145 50.64400757 -9.60473145 50.64400757 -10.22167969 51.30102539 C-12.05132755 53.23445139 -13.90014175 55.14841056 -15.75 57.0625 C-16.38421875 57.73861328 -17.0184375 58.41472656 -17.671875 59.11132812 C-18.6 60.06362305 -18.6 60.06362305 -19.546875 61.03515625 C-20.11245117 61.6269165 -20.67802734 62.21867676 -21.26074219 62.82836914 C-23 64 -23 64 -25.15332031 63.87280273 C-26.06742676 63.44076538 -26.06742676 63.44076538 -27 63 C-27.495 61.515 -27.495 61.515 -28 60 C-26.77734375 58.16796875 -26.77734375 58.16796875 -24.9375 56.1875 C-24.29554687 55.49011719 -23.65359375 54.79273438 -22.9921875 54.07421875 C-20.36623357 51.34013731 -17.71357657 48.64739178 -15 46 C-15.79664063 46.34224609 -15.79664063 46.34224609 -16.609375 46.69140625 C-17.66898438 47.12259766 -17.66898438 47.12259766 -18.75 47.5625 C-19.44609375 47.85253906 -20.1421875 48.14257812 -20.859375 48.44140625 C-23.352444 49.09196987 -24.64000299 49.02095523 -27 48 C-27.495 46.515 -27.495 46.515 -28 45 C-25.27521226 41.63408573 -21.93143208 40.55773724 -18 39 C-24.93 38.505 -24.93 38.505 -32 38 C-32.33 36.35 -32.66 34.7 -33 33 C-31.00383446 31.00383446 -27.18298037 31.59016573 -24.4375 31.4375 C-23.37112305 31.37272461 -23.37112305 31.37272461 -22.28320312 31.30664062 C-20.52238088 31.20028223 -18.7612168 31.09961154 -17 31 C-17.71027344 30.75765625 -18.42054687 30.5153125 -19.15234375 30.265625 C-20.53099609 29.76289062 -20.53099609 29.76289062 -21.9375 29.25 C-22.85402344 28.92515625 -23.77054688 28.6003125 -24.71484375 28.265625 C-27 27 -27 27 -27.94140625 24.984375 C-27.96074219 24.32953125 -27.98007812 23.6746875 -28 23 C-27.34 22.34 -26.68 21.68 -26 21 C-21.33676094 21.41146227 -17.44772895 23.33210164 -13 25 C-17.95 20.05 -22.9 15.1 -28 10 C-27.34 8.68 -26.68 7.36 -26 6 C-22.69881206 6.5805321 -21.08865924 7.54868099 -18.765625 9.94140625 C-18.19199219 10.52470703 -17.61835938 11.10800781 -17.02734375 11.70898438 C-16.44082031 12.32064453 -15.85429687 12.93230469 -15.25 13.5625 C-14.64800781 14.17802734 -14.04601562 14.79355469 -13.42578125 15.42773438 C-11.94365619 16.94514813 -10.4709033 18.47170596 -9 20 C-9.21438721 19.45730469 -9.42877441 18.91460938 -9.6496582 18.35546875 C-9.92640381 17.64003906 -10.20314941 16.92460937 -10.48828125 16.1875 C-10.76454346 15.47980469 -11.04080566 14.77210937 -11.32543945 14.04296875 C-12.12555207 11.61975398 -12.2376032 9.53443414 -12 7 C-10.35 6.67 -8.7 6.34 -7 6 C-5.68 8.97 -4.36 11.94 -3 15 C-2.95101562 14.08476562 -2.90203125 13.16953125 -2.8515625 12.2265625 C-2.77679688 11.03804687 -2.70203125 9.84953125 -2.625 8.625 C-2.55539063 7.44164062 -2.48578125 6.25828125 -2.4140625 5.0390625 C-2 2 -2 2 0 0 Z " fill="#FFFFFF" transform="translate(40,2)"/>
</svg>
